<svg width="512" height="512" viewBox="0 0 512 512" fill="none" xmlns="http://www.w3.org/2000/svg">
<path d="M347.599 422.773C398.361 422.773 439.511 381.622 439.511 330.861C439.511 280.099 398.361 238.949 347.599 238.949C296.838 238.949 255.687 280.099 255.687 330.861C255.687 381.622 296.838 422.773 347.599 422.773Z" fill="#FFE55C"/>
<path fill-rule="evenodd" clip-rule="evenodd" d="M364.35 306.249C363.022 303.941 360.478 299.332 358.422 295.213C356.367 291.096 354.798 287.469 352.986 283.485C351.174 279.501 349.119 275.158 346.49 277.166C343.86 279.172 340.656 287.525 337.978 293.814C335.301 300.103 333.149 304.326 332.073 306.438C330.997 308.549 330.997 308.549 330.997 308.549C330.997 308.549 330.997 308.549 327.792 309.017C324.588 309.484 318.179 310.418 311.109 311.34C304.039 312.262 296.309 313.17 295.326 315.969C294.344 318.766 300.11 323.456 305.399 327.79C310.689 332.125 315.502 336.105 317.908 338.095C320.315 340.086 320.315 340.086 320.315 340.086C320.315 340.086 320.315 340.086 319.888 342.737C319.46 345.389 318.605 350.692 317.231 357.502C315.857 364.311 313.965 372.625 316.005 375.086C318.044 377.546 324.016 374.152 330.051 370.591C336.086 367.031 342.184 363.304 345.232 361.44C348.281 359.576 348.281 359.576 348.281 359.576C348.281 359.576 348.281 359.576 350.867 361.151C353.452 362.725 358.623 365.875 364.247 369.335C369.87 372.793 375.947 376.56 378.408 375.041C380.87 373.52 379.718 366.71 378.755 360.003C377.793 353.296 377.02 346.69 376.633 343.388C376.246 340.086 376.246 340.086 381.854 335.636C387.46 331.188 398.673 322.291 399.072 317.226C399.471 312.162 389.055 310.932 383.661 310.294C378.268 309.656 377.896 309.611 376.582 309.493C375.267 309.374 373.009 309.183 371.073 309.019C369.137 308.853 367.524 308.716 366.659 308.643C365.795 308.57 365.68 308.559 364.35 306.249Z" fill="#FFF8A0"/>
<path d="M306.099 90C351.526 90 388.353 126.826 388.354 172.254C388.354 217.682 351.526 254.509 306.099 254.509C290.933 254.509 276.727 250.403 264.529 243.245C282.109 224.549 292.857 199.517 292.857 172.01C292.857 144.657 282.229 119.753 264.825 101.091C276.957 94.0394 291.056 90.0001 306.099 90Z" fill="#5BA3F5"/>
<path d="M185.101 255.017C230.453 255.017 267.217 218.252 267.217 172.901C267.217 127.55 230.453 90.7855 185.101 90.7855C139.75 90.7855 102.986 127.55 102.986 172.901C102.986 218.252 139.75 255.017 185.101 255.017Z" fill="#8BC4FA"/>
<path fill-rule="evenodd" clip-rule="evenodd" d="M244.159 278.368C243.114 280.54 241.051 284.886 239.302 289.379C237.553 293.872 236.117 298.513 234.576 305.948C233.034 313.382 231.387 323.612 231.977 334.181C232.566 344.749 235.393 355.657 237.846 363.371C240.3 371.086 242.38 375.605 243.42 377.866C244.461 380.125 244.461 380.125 244.461 380.125C244.461 380.125 244.461 380.125 219.735 380.125C195.01 380.125 145.56 380.125 120.835 380.125C96.1108 380.125 96.1108 380.125 94.9076 380.146C93.7044 380.166 91.2979 380.207 88.2191 379.441C85.1413 378.674 81.3911 377.101 78.6929 373.666C75.9957 370.229 74.3505 364.932 73.599 361.471C72.8467 358.01 72.9881 356.385 73.0592 354.158C73.1295 351.93 73.1295 349.098 73.1295 347.005C73.1295 344.912 73.1295 343.557 73.2629 340.858C73.3962 338.159 73.663 334.115 74.0935 330.854C74.5239 327.592 75.1179 325.114 78.0215 318.961C80.926 312.809 86.14 302.982 93.2926 295.779C100.447 288.575 109.539 283.996 117.658 281.169C125.776 278.343 132.921 277.269 137.108 276.732C141.295 276.195 142.527 276.195 143.697 276.195C144.866 276.195 145.974 276.195 162.632 276.195C179.289 276.195 211.496 276.195 227.628 276.195C243.76 276.195 243.817 276.195 243.876 276.195C243.936 276.195 243.998 276.195 244.147 276.195C244.296 276.195 244.53 276.195 244.708 276.195C244.887 276.195 245.008 276.195 245.062 276.195C245.117 276.195 245.105 276.195 245.126 276.195C245.147 276.195 245.202 276.195 245.217 276.195C245.231 276.195 245.204 276.195 244.159 278.368Z" fill="#5BA3F5" stroke="#7BB5F8" stroke-width="0.755906" stroke-miterlimit="22.9256"/>
</svg>
